<svg width="2973" height="125" viewBox="0 0 2973 125" fill="none" xmlns="http://www.w3.org/2000/svg">
<path fill-rule="evenodd" clip-rule="evenodd" d="M1245 54.0028L1286.76 65.2534C1327.08 76.5039 1409.16 99.0051 1491.24 99.0051C1574.76 99.0051 1656.84 76.5039 1738.92 63.0032C1821 49.5025 1903.08 45.0023 1985.16 56.2529C2067.24 67.5035 2150.76 94.5049 2232.84 110.256C2314.92 126.006 2397 130.507 2479.08 117.006C2561.16 103.505 2643.24 72.0037 2726.76 63.0032C2808.84 54.0028 2890.92 67.5035 2931.24 74.2538L2973 81.0042V0H2931.24C2890.92 0 2808.84 0 2726.76 0C2643.24 0 2561.16 0 2479.08 0C2397 0 2314.92 0 2232.84 0C2150.76 0 2067.24 0 1985.16 0C1903.08 0 1821 0 1738.92 0C1656.84 0 1574.76 0 1491.24 0C1409.16 0 1327.08 0 1286.76 0H1245V54.0028Z" fill="#28374E"/>
<path fill-rule="evenodd" clip-rule="evenodd" d="M1728 54.0028L1686.24 65.2534C1645.92 76.5039 1563.84 99.0051 1481.76 99.0051C1398.24 99.0051 1316.16 76.5039 1234.08 63.0032C1152 49.5025 1069.92 45.0023 987.84 56.2529C905.76 67.5035 822.24 94.5049 740.16 110.256C658.08 126.006 576 130.507 493.92 117.006C411.84 103.505 329.76 72.0037 246.24 63.0032C164.16 54.0028 82.08 67.5035 41.76 74.2538L0 81.0042V0H41.76C82.08 0 164.16 0 246.24 0C329.76 0 411.84 0 493.92 0C576 0 658.08 0 740.16 0C822.24 0 905.76 0 987.84 0C1069.92 0 1152 0 1234.08 0C1316.16 0 1398.24 0 1481.76 0C1563.84 0 1645.92 0 1686.24 0H1728V54.0028Z" fill="#28374E"/>
</svg>
